<?xml version="1.0" encoding="utf-8"?>
<!-- Generator: Adobe Illustrator 27.5.0, SVG Export Plug-In . SVG Version: 6.00 Build 0)  -->
<svg version="1.1" xmlns="http://www.w3.org/2000/svg" xmlns:xlink="http://www.w3.org/1999/xlink" x="0px" y="0px"
	 viewBox="0 0 800 800" style="enable-background:new 0 0 800 800;" xml:space="preserve">
<g id="background">
	<rect style="fill:#FFFFFF;" width="800" height="800"/>
</g>
<g id="objekt">
	<g>
		<linearGradient id="SVGID_1_" gradientUnits="userSpaceOnUse" x1="231.4901" y1="312.3371" x2="272.8922" y2="123.6085">
			<stop  offset="0.0043" style="stop-color:#482313"/>
			<stop  offset="1" style="stop-color:#1E0D06"/>
		</linearGradient>
		<path style="fill:url(#SVGID_1_);" d="M354.498,182.589c-4.472-15.52-12.883-30.117-23.072-42.155
			c-11.372-13.436-27.748-17.628-44.01-22.26c-22.373-6.372-46.498-11.614-69.435-4.938c-30.958,9.011-53.785,36.772-62.311,67.117
			c-8.844,31.482-6.886,63.855,2.036,95.082c1.364,4.776,3.895,16.282,8.485,19.368c4.047,2.722,8.167-0.397,13.227-1.729
			c9.16-2.413,18.496-2.951,27.857-4.567c17.572-3.036,33.102-5.227,50.909-4.244c10.805,0.595,21.557,0.278,32.29,1.326
			c6.731,0.658,13.537,3.059,20.162,3.448c12.637,0.74,24.381-19.333,29.904-28.398c7.981-13.098,14.237-27.856,16.586-43.082
			C358.935,205.836,357.775,193.964,354.498,182.589z"/>
		
			<linearGradient id="SVGID_00000107572711452860097990000002654232331493245075_" gradientUnits="userSpaceOnUse" x1="340.4131" y1="492.9348" x2="357.6146" y2="641.4193">
			<stop  offset="0" style="stop-color:#F89E71"/>
			<stop  offset="1" style="stop-color:#FFC593"/>
		</linearGradient>
		<path style="fill:url(#SVGID_00000107572711452860097990000002654232331493245075_);" d="M370.373,558.807
			c-6.199-16.572-14.544-40.395-3.37-57.039l-23.54-6.338c-10.662,21.394-19.862,40.439-19.919,64.31
			c-0.035,14.451,2.334,29.587,6.568,43.458c5.76,18.87,12.96,37.354,18.783,56.29c7.756,25.216,6.772,52.004,6.291,78.128
			c11.78-34.273,14.173-71.403,19.084-107.484C377.222,608.461,378.022,579.255,370.373,558.807z"/>
		<path style="fill:#BAB7B6;" d="M333.729,349.435c0,0,17.656-16.976,33.274,4.753c15.618,21.73,22.408,69.942,12.223,129.019
			l-35.989,8.148L333.729,349.435z"/>
		<path style="fill:#C9C9C9;" d="M343.915,487.961l-5.432,34.631c10.865-5.432,43.458-4.074,43.458-4.074l8.828-38.026
			C373.793,470.983,343.915,487.961,343.915,487.961z"/>
		
			<linearGradient id="SVGID_00000034084706771118298330000008132876332593291195_" gradientUnits="userSpaceOnUse" x1="115.6086" y1="465.7624" x2="156.6365" y2="687.8797">
			<stop  offset="0" style="stop-color:#F89E71"/>
			<stop  offset="1" style="stop-color:#FFC593"/>
		</linearGradient>
		<path style="fill:url(#SVGID_00000034084706771118298330000008132876332593291195_);" d="M70.26,477.095
			c0,0-27.162,38.706-11.544,47.534c15.618,8.827,110.005,62.472,124.944,85.559c0,0-32.594,38.027-31.915,55.003
			c0.679,16.978,21.051,44.817,21.051,44.817l37.347-117.474c0,0-70.62-84.202-101.177-89.635l8.828-14.259L70.26,477.095z"/>
		<path style="fill:#131313;" d="M356.727,801c5.217-32.831,12.25-113.932-14.17-168.803l-161.16,14.433
			c0,0-37.655,62.52,17.461,154.371H356.727z"/>
		<path style="fill:#2B2829;" d="M253.523,801c-8.791-32.338-24.245-100.428-11.464-140.789l-48.892-13.582
			c0,0-37.518,47.331,19.865,154.371H253.523z"/>
		<path style="fill:#CECECE;" d="M244.095,343.323c0,0-9.506,17.654-38.706,5.433c0,0-1.358,40.063-31.915,68.583
			c0,0,17.655,27.84,41.422,72.658c23.767,44.817,8.827,78.091-17.655,112.722c-26.483,34.631-23.767,48.892-23.767,48.892
			l110.006,19.691l14.938-33.952l21.729,23.767l47.534-8.828c0,0-36.668-66.547-31.916-102.536
			c4.754-35.99,26.709-103.216,17.656-116.117c-11.878-16.925-12.902-23.767-12.902-23.767L244.095,343.323z"/>
		
			<linearGradient id="SVGID_00000108301554158874306260000009111106822312711553_" gradientUnits="userSpaceOnUse" x1="267.3431" y1="306.9521" x2="287.4202" y2="415.6461">
			<stop  offset="0" style="stop-color:#F89E71"/>
			<stop  offset="1" style="stop-color:#FFC593"/>
		</linearGradient>
		<path style="fill:url(#SVGID_00000108301554158874306260000009111106822312711553_);" d="M309.284,354.189
			c0,0-14.26-31.236-14.26-48.212l-55.003,7.469c0,0,10.186,35.311-2.037,46.174c0,0,16.976,46.176,29.199,64.511
			c0,0,38.026,1.358,44.137-0.679C311.32,423.452,333.051,386.104,309.284,354.189z"/>
		<path style="fill:#FFC593;" d="M325.09,193.676c-6.887-20.749-21.579-35.475-38.25-49.391
			c-6.453-5.387-13.254-11.057-22.374-9.273c-6.284,1.228-12.938,5.553-18.813,8.053c-6.085,2.591-21.885,5.471-24.646,11.629
			c0,0-56.337,51.281-56.36,51.302c-0.037,0.034,4.708,37.267,16.975,58.917c10.186,17.976,27.693,31.356,40.807,39.35
			c13.77,8.392,28.456,20.727,48.813,16.143c15.552-3.502,25.899-17.493,34.37-30.081
			C324.35,262.487,336.445,227.885,325.09,193.676z"/>
		<g>
			<path style="fill:#C8916F;" d="M265.825,221.095c0,0-1.358-27.84,23.767-29.199c17.167-0.928,30.557,24.445,30.557,24.445
				l-4.82,0.423l-4.736-2.302L265.825,221.095z"/>
			<path style="fill:#FFFFFF;" d="M265.825,221.095c0,0,25.804-0.679,33.273,0c7.47,0.679,11.544-4.075,14.939-8.828
				c0,0-7.904-15.343-29.877-12.902C265.825,201.403,265.825,221.095,265.825,221.095z"/>
			<path style="fill:#965835;" d="M294.27,202.213c-2.382-1.549-5.315-2.134-8.421-0.995c-9.073,3.328-6.86,16.855,1.163,19.839
				C299.077,225.546,304.029,208.558,294.27,202.213z"/>
			<path style="fill:#161314;" d="M265.825,221.095c0,0,5.433-20.371,24.446-19.013c19.014,1.358,18.335,16.976,31.236,14.938
				c0,0-4.074-2.716-9.507-8.148c0,0-9.506-12.902-22.408-12.223C276.689,197.329,267.183,204.799,265.825,221.095z"/>
			<path style="fill:#161314;" d="M297.672,210.231c0,4.125-3.177,7.469-7.096,7.469c-3.92,0-7.096-3.345-7.096-7.469
				c0-4.125,3.176-7.47,7.096-7.47C294.495,202.761,297.672,206.105,297.672,210.231z"/>
			<path style="fill:#FFFFFF;" d="M284.838,209.551c0,1.688-1.368,3.056-3.056,3.056c-1.688,0-3.056-1.369-3.056-3.056
				c0-1.687,1.368-3.056,3.056-3.056C283.47,206.496,284.838,207.864,284.838,209.551z"/>
		</g>
		
			<linearGradient id="SVGID_00000085231759558529619190000002295718098959942588_" gradientUnits="userSpaceOnUse" x1="357.1186" y1="298.1573" x2="299.2181" y2="84.7332">
			<stop  offset="0.0043" style="stop-color:#482313"/>
			<stop  offset="1" style="stop-color:#1E0D06"/>
		</linearGradient>
		<path style="fill:url(#SVGID_00000085231759558529619190000002295718098959942588_);" d="M353.254,262.504
			c7.911-27.901,20.081-52.954,19.179-82.83c-0.838-27.694-8.052-61.963-29.464-81.398c-13.421-12.182-41.477-19.187-58.796-12.13
			c-16.201,6.604-13.443,22.815-14.953,36.489c-0.949,8.596,7.878,15.745,13.617,20.372c27.726,22.357,73.979,62.472,21.015,152.105
			c16.142,17.247,40.557,15.749,62.911,4.055C345.823,294.788,348.372,279.724,353.254,262.504z"/>
		<g>
			<path style="fill:#C8916F;" d="M231.521,223.052c0,0-2.425-27.769-27.503-25.711c-17.135,1.405-26.964,28.358-26.964,28.358
				l4.833-0.234l4.381-2.922L231.521,223.052z"/>
			<path style="fill:#FFFFFF;" d="M231.521,223.052c0,0-25.657,2.822-32.967,4.506c-7.308,1.685-11.989-2.474-15.996-6.723
				c0,0,5.754-16.273,27.855-16.83C228.854,203.541,231.521,223.052,231.521,223.052z"/>
			<path style="fill:#965835;" d="M200.781,208.195c2.15-1.857,4.977-2.834,8.208-2.126c9.441,2.068,9.08,15.77,1.537,19.813
				C199.178,231.965,191.971,215.805,200.781,208.195z"/>
			<path style="fill:#161314;" d="M231.521,223.052c0,0-8.141-19.448-26.795-15.528c-18.655,3.921-15.866,19.303-28.925,19.032
				c0,0,3.67-3.243,8.316-9.36c0,0,7.671-14.071,20.546-15.146C217.538,200.975,227.969,207.088,231.521,223.052z"/>
			<path style="fill:#161314;" d="M198.496,216.601c0.559,4.086,4.159,6.97,8.044,6.439c3.882-0.531,6.577-4.275,6.018-8.362
				c-0.559-4.087-4.159-6.971-8.042-6.44C200.631,208.77,197.937,212.513,198.496,216.601z"/>
			<path style="fill:#FFFFFF;" d="M211.12,214.19c0.229,1.672,1.77,2.842,3.441,2.613c1.672-0.229,2.843-1.77,2.614-3.441
				c-0.229-1.672-1.77-2.842-3.442-2.614C212.063,210.977,210.891,212.517,211.12,214.19z"/>
		</g>
		
			<radialGradient id="SVGID_00000183937480203300589250000006104409775391615156_" cx="389.8715" cy="480.7999" r="21.4044" gradientTransform="matrix(1.1298 0 0 0.8013 -241.8676 -141.8576)" gradientUnits="userSpaceOnUse">
			<stop  offset="0" style="stop-color:#ED7D51;stop-opacity:0.9"/>
			<stop  offset="1" style="stop-color:#ED7D51;stop-opacity:0"/>
		</radialGradient>
		<path style="opacity:0.8;fill:url(#SVGID_00000183937480203300589250000006104409775391615156_);" d="M206.377,226.075
			c-5.252-1.149-10.909-0.799-15.332,0.585c-9.949,3.12-22.856,16.624-10.892,27.283c11.892,10.596,45.811,13.088,41.318-13.455
			C220.044,232.062,213.595,227.655,206.377,226.075z"/>
		
			<radialGradient id="SVGID_00000134232039119588532010000007161187507269678008_" cx="3436.4385" cy="473.8625" r="21.4046" gradientTransform="matrix(-1.1298 0 0 0.8013 4180.4658 -145.1263)" gradientUnits="userSpaceOnUse">
			<stop  offset="0" style="stop-color:#ED7D51;stop-opacity:0.9"/>
			<stop  offset="1" style="stop-color:#ED7D51;stop-opacity:0"/>
		</radialGradient>
		<path style="opacity:0.8;fill:url(#SVGID_00000134232039119588532010000007161187507269678008_);" d="M290.209,217.247
			c5.252-1.148,10.91-0.799,15.332,0.585c9.95,3.119,22.857,16.623,10.892,27.283c-11.893,10.596-45.812,13.089-41.319-13.455
			C276.543,223.234,282.991,218.828,290.209,217.247z"/>
		<g>
			<path style="fill:#63040B;" d="M221.686,267.271c0,0,43.459,6.79,65.642-5.886c0,0-1.811,31.689-27.614,33.5
				C236.683,296.502,221.686,267.271,221.686,267.271z"/>
			<g>
				<path style="fill:#FFFFFF;" d="M228.931,270.44c0,0,5.432,10.412,29.878,8.149c23.595-2.185,22.183-12.223,22.183-12.223
					L228.931,270.44z"/>
				<path style="fill:#FFFFFF;" d="M234.362,280.852c0,0,25.352,15.392,47.081-3.622c0,0-5.354,15.138-16.749,15.391
					C244.322,293.074,234.362,280.852,234.362,280.852z"/>
				<path style="fill:#DB5B3E;" d="M221.686,267.271c0,0,40.291,2.716,65.642-5.886C287.328,261.385,262.43,284.473,221.686,267.271
					z"/>
				<path style="fill:#FF7940;" d="M223.951,269.082c0,0,16.75,23.994,36.668,21.729c14.056-1.598,23.541-15.392,24.783-26.128
					c0.435-3.763,1.925-3.298,1.926-3.298c0,0,1.811,31.689-24.445,36.669c-21.423,4.063-36.216-16.749-41.196-30.783
					L223.951,269.082z"/>
				<path style="fill:#FFFFFF;" d="M275.691,286.084c-0.085,0.019-0.173,0.041-0.266,0.069c-2.497,0.766-3.445,4.428-0.747,4.365
					C277.846,290.444,278.578,285.474,275.691,286.084z"/>
			</g>
		</g>
		
			<linearGradient id="SVGID_00000119830804897319683290000013211490310997378201_" gradientUnits="userSpaceOnUse" x1="237.7224" y1="249.6478" x2="258.1048" y2="227.756">
			<stop  offset="0" style="stop-color:#FFFFFF;stop-opacity:0.9"/>
			<stop  offset="1" style="stop-color:#FFFFFF;stop-opacity:0"/>
		</linearGradient>
		<path style="fill:url(#SVGID_00000119830804897319683290000013211490310997378201_);" d="M250.629,218.176
			c-0.026-0.029-0.052-0.059-0.079-0.087c-0.598-0.665-6.283,2.183-6.875,2.917c-1.746,2.162-0.788,5.59-1.2,8.178
			c-0.877,5.521-1.138,8.839-1.795,14.455c-1.483,12.684,15.576,11.321,18.991,4.238
			C263.591,239.752,256.28,224.534,250.629,218.176z"/>
		
			<linearGradient id="SVGID_00000108304386942374545490000009436096419020029315_" gradientUnits="userSpaceOnUse" x1="146.6773" y1="316.1381" x2="199.5154" y2="75.2795">
			<stop  offset="0.0043" style="stop-color:#482313"/>
			<stop  offset="1" style="stop-color:#1E0D06"/>
		</linearGradient>
		<path style="fill:url(#SVGID_00000108304386942374545490000009436096419020029315_);" d="M277.877,88.681
			c-7.55-11.005-28.246-15.123-40.537-15.653c-26.128-1.128-50.213,3.213-71.483,17.522c-25.961,17.463-39.6,57.183-46.701,86.582
			c-4.56,18.878-3.059,43.521-17.663,58.898c-12.899,13.584-20.368,1.361-20.945-12.104c-8.251,16.181-6.81,32.81,0.577,45.38
			c38.705,65.867,138.148,43.542,143.278,35.989c-59.756-33.953-63.963-90.772-52.319-113.927
			c14.151-28.141,39.671-40.316,67.934-49.555c2.05-0.669,10.715-3.684,8.83-2.206l26.482-15.618
			C277.714,112.017,286.564,101.342,277.877,88.681z"/>
		
			<linearGradient id="SVGID_00000085232892846217836250000010491258746926407329_" gradientUnits="userSpaceOnUse" x1="145.0109" y1="304.1054" x2="167.3669" y2="202.1969">
			<stop  offset="0.0085" style="stop-color:#643C29;stop-opacity:0.7"/>
			<stop  offset="1" style="stop-color:#1E0D06"/>
		</linearGradient>
		<path style="opacity:0.4;fill:url(#SVGID_00000085232892846217836250000010491258746926407329_);" d="M178.759,287.13
			c3.669-4.646,6.136-9.499,7.654-14.478c-17.977-23.951-21.726-50.154-18.438-68.372l-13.513-4.913
			c-3.656,4.471-1.273,16.888-0.847,22.508c1.131,14.886,1.823,31.122-3.231,45.414c-5.685,16.071-18.566,32.624-37.138,24.342
			c12.821,8.101,28.306,15.079,43.932,10.272C166.159,299.138,173.011,294.41,178.759,287.13z"/>
		<path style="fill:#1E0D06;" d="M239.305,130.798c-32.557-3.411-58.552,4.184-74.017,24.665
			c-45.458,60.2-4.036,98.906,12.939,105.017c-13.58-23.766-27.136-54.492,23.042-80.618c40.789-21.238,82.211-26.671,78.136-68.771
			C279.406,111.09,262.548,133.233,239.305,130.798z"/>
		<path style="fill:#CB7955;" d="M230.515,195.97c0,0-31.915-23.766-52.965,12.902C177.549,208.873,189.771,159.981,230.515,195.97z
			"/>
		<path style="fill:#FFC593;" d="M333.729,189.18l2.716,48.213c5.357-11.468,10.186-19.693,10.865-35.159
			C347.863,189.649,346.347,180.411,333.729,189.18z"/>
		<path style="fill:#CB7955;" d="M260.205,200.104c0,0,21.162-33.699,54.047-7.123C314.252,192.981,285.178,151.817,260.205,200.104
			z"/>
		<path style="fill:#1E0D06;" d="M278.727,123.992l-6.79,15.618c0,0,98.462,44.138,31.915,155.501
			C303.852,295.111,403.671,192.576,278.727,123.992z"/>
		<g>
			
				<linearGradient id="SVGID_00000084498042725207426460000009825869882890255802_" gradientUnits="userSpaceOnUse" x1="193.1247" y1="232.7115" x2="217.0237" y2="123.7696">
				<stop  offset="0.0085" style="stop-color:#643C29;stop-opacity:0.7"/>
				<stop  offset="1" style="stop-color:#1E0D06"/>
			</linearGradient>
			<path style="fill:url(#SVGID_00000084498042725207426460000009825869882890255802_);" d="M226.44,152.549
				c-11.84,2.852-24.171,4.723-36.138,7.413c-13.708,3.081-27.424,9.364-34.33,22.241c-8.184,15.262-3.531,29.095,2.512,42.909
				c-4.244-17.309,13.972-34.782,26.531-44.043c11.253-8.296,23.545-15.749,36.504-21.239c12.256-5.191,32.359-10.344,40.91-20.899
				l2.037-4.754C257.648,146.532,238.77,149.58,226.44,152.549z"/>
		</g>
		
			<linearGradient id="SVGID_00000146478582863181369390000017474365185492651948_" gradientUnits="userSpaceOnUse" x1="147.8306" y1="287.3088" x2="191.6364" y2="87.6233">
			<stop  offset="0.0085" style="stop-color:#643C29;stop-opacity:0.7"/>
			<stop  offset="1" style="stop-color:#1E0D06"/>
		</linearGradient>
		<path style="fill:url(#SVGID_00000146478582863181369390000017474365185492651948_);" d="M257.414,108.391
			c-3.541-4.203-11.815-7.9-14.815-8.863c-8.41-2.698-17.561-5.052-26.312-5.415c-24.243-1.005-44.667,6.225-59.975,25.804
			c-17.866,22.852-24.403,53.863-28.485,81.981c-2.616,18.014-4.883,43.679-16.789,58.579c-7.063,8.837-17.691,4.077-28.556-7.467
			c6.112,23.767,27.836,32.867,40.064,17.688c16.099-19.984,12.761-49.088,17.146-72.537c3.405-18.207,12.344-38.773,26.275-51.082
			c12.969-11.459,28.699-23.275,46.227-25.84c10.55-1.544,21.337-0.282,31.933-2.314c3.226-0.619,13.281-1.828,14.695-5.562
			C259.444,111.716,258.783,110.016,257.414,108.391z"/>
		
			<linearGradient id="SVGID_00000174564008812498106290000007006002788289590923_" gradientUnits="userSpaceOnUse" x1="304.0432" y1="264.5779" x2="341.2876" y2="94.8022">
			<stop  offset="0.0085" style="stop-color:#643C29;stop-opacity:0.7"/>
			<stop  offset="1" style="stop-color:#1E0D06"/>
		</linearGradient>
		<path style="fill:url(#SVGID_00000174564008812498106290000007006002788289590923_);" d="M365.561,148.325
			c-2.62-11.379-6.461-25.252-12.629-34.624c-8.883-13.497-52.127-41.133-63.283-14.751c-4.532,10.718,4.374,21.532,12.774,27
			c9.43,6.138,20.242,9.184,29.045,16.458c9.062,7.487,17.18,17.563,22.233,28.193c7.344,15.451,6.876,33.978,2.949,50.279
			c-2.184,9.059-5.509,17.835-9.473,26.257c-3.251,6.902-7.399,18.911-13.228,24.002c32.559-28.444,41.337-78.977,32.296-119.775
			C366.028,150.374,365.8,149.36,365.561,148.325z"/>
		<path style="opacity:0.3;fill:#AA7B5A;" d="M154.462,199.366c0,0,7.469-33.273,50.928-42.78
			C205.39,156.586,150.387,156.586,154.462,199.366z"/>
		
			<linearGradient id="SVGID_00000129193529411130020440000006362473853425149315_" gradientUnits="userSpaceOnUse" x1="364.3778" y1="515.0355" x2="209.4182" y2="516.5474">
			<stop  offset="0.0085" style="stop-color:#643C29;stop-opacity:0.7"/>
			<stop  offset="1" style="stop-color:#1E0D06;stop-opacity:0"/>
		</linearGradient>
		<path style="opacity:0.4;fill:url(#SVGID_00000129193529411130020440000006362473853425149315_);" d="M335.767,549.752
			c3.448-26.105,12.66-51.482,15.749-77.46c-6.958,15.975-31.839,19.492-46.958,21.924c-29.026,4.668-53.5-6.442-81.6-9.144
			c-0.783,9.301,17.79,30.907,18,41c9.525-3.118,24.074-13.96,34.837-15.423c11.449-1.556,23.051-1.11,33.64,3.608
			c18.323,8.164,20.691,26.833,25.93,43.93C335.296,555.236,335.415,552.41,335.767,549.752z"/>
		<path style="fill:#BAB7B6;" d="M287.554,637.35c0,0,5.491-74.189,2.817-124.925c-0.396-7.511,10.314-15.186,12.92-21.353
			c4.022-9.515-1.323-20.373-1.886-24.768l-13.172-6.184l-61.793-46.855l-30.557-8.828c0,0,12.222,8.149,29.199,24.447
			c13.974,13.414,27.452,21.056,38.35,25.423c3.061,5.064,28.125,6.247,30.913,18.012c2.12,8.942-8.949,29.174-11.387,38.754
			c-14,55,4.9,127.897-13.738,143.934c0,0-6.111,11.542-63.831,2.716l78.091,13.58l14.938-33.952H287.554z"/>
		<path style="fill:#131313;" d="M256.958,430.072c0,0,29-32,66,4l-34.725,26.047L256.958,430.072z"/>
		<path style="fill:#CB7955;" d="M260.477,243.539c1.274,9.471-13.983,13.107-19.097,4.718l-0.679-1.019
			c-0.196,8.019,7.403,8.105,13.579,7.12c2.184-0.348,7.092-1.024,8.073-3.047C263.233,249.495,261.706,244.692,260.477,243.539z"/>
		<path style="fill:#E5E5E5;" d="M244.095,343.323c0,0-26.482,12.902-48.211,61.114c0,0,26.482,9.507,35.989,19.015
			c9.507,9.506,42.78,33.952,56.361,36.668c0,0-43.459-75.374-48.212-99.821L244.095,343.323z"/>
		<polygon style="fill:#BAB7B6;" points="340.52,409.87 290.745,458.84 345.952,417.339 		"/>
		<path style="fill:#FFFFFF;" d="M273.252,453.589c1.851-1.649-7.427-6.373-30.515-33.534
			c-33.183-39.038-26.482-50.249-26.482-50.249c-0.298,0.273-0.603,0.58-0.91,0.903c-5.46,7.376-11.188,16.554-16.705,27.875
			c-0.486,1.004-0.92,1.913-1.292,2.697c-0.489,1.043-0.979,2.08-1.464,3.156c0,0,26.482,9.507,35.989,19.015
			C238.734,430.311,257.969,444.95,273.252,453.589z"/>
		<path style="fill:#E5E5E5;" d="M299.777,331.101l9.507,23.088c0,0,27.161,52.965-21.051,105.931c0,0,34.632-31.236,52.287-50.25
			c17.655-19.014,23.087-26.482,23.087-26.482S331.693,334.496,299.777,331.101z"/>
		<path style="fill:#FFFFFF;" d="M340.52,409.87c17.655-19.014,23.087-26.482,23.087-26.482s-11.027-16.883-26.595-31.496
			c7.432,15.672,9.834,32.552-1.397,48.471c-10.075,14.281-22.773,27.792-33.855,41.993c-2.698,4.331-5.832,8.701-9.463,13.084
			c-0.525,0.795-1.042,1.596-1.551,2.4C299.006,450.322,325.721,425.808,340.52,409.87z"/>
		<g>
			<path style="fill:#FFFFFF;" d="M206.748,663.833l-0.148-0.101C206.585,664.064,206.627,664.138,206.748,663.833z"/>
			<path style="opacity:0.4;fill:#FFFFFF;" d="M236.505,523.216c3.865,19.534-0.09,44.252-11.541,60.822
				c-17.044,24.664-28.701,41.739-39.267,69.609c0,0,22.082,5.182,22.583,3.409c6.514-23.121,20.677-43.164,28.722-65.723
				C244.295,570.89,237.05,524.353,236.505,523.216z"/>
		</g>
		<path style="fill:#E2E2E2;" d="M68.223,466.231c10.562-17.049,21.547-34.298,33.594-50.363
			c13.839-18.456,28.287-36.311,43.57-53.586c12.195-13.784,42.608-48.254,60.519-20.725c9.391,14.435-4.495,35.675-11.244,48.357
			c-10.236,19.233-58.968,73.609-72.115,81.069L68.223,466.231z"/>
		<path style="opacity:0.4;fill:#FFFFFF;" d="M176.023,341.798C155.432,356.192,76.014,455.996,74.334,462.157l34.631,4.753
			c23.576-17.641,92.334-97.053,91.671-114.759C200.274,342.482,188.414,333.138,176.023,341.798z"/>
		<path style="fill:#E5E5E5;" d="M56,482.528c0,0,2.716-33.275-2.038-39.386c0,0,65.189-1.357,84.202,25.804l-16.976,23.767
			C121.188,492.713,74.334,472.341,56,482.528z"/>
		<path style="fill:#CB7955;" d="M91.989,502.22c0,0,29.199-18.334,116.117,86.918l-3.395,3.396
			C204.711,592.534,136.127,498.146,91.989,502.22z"/>
		<path style="fill:#FFFFFF;" d="M298.958,450.072c0,0,16,21,5,49c0,0-21.078,47.556-5.539,138.278h-10.865
			c0,0-9.596-74.278,3.404-133.278c0,0,11.677-24.265-0.662-45.632L298.958,450.072z"/>
		<path style="fill:#999999;" d="M304.958,470.072c0,2.438-1.977,4.413-4.414,4.413c-2.438,0-4.414-1.975-4.414-4.413
			c0-2.437,1.976-4.414,4.414-4.414C302.981,465.659,304.958,467.635,304.958,470.072z"/>
		<path style="fill:#999999;" d="M300.372,512.072c0,2.438-1.977,4.413-4.414,4.413c-2.438,0-4.414-1.975-4.414-4.413
			c0-2.437,1.976-4.414,4.414-4.414C298.395,507.659,300.372,509.635,300.372,512.072z"/>
		<path style="fill:#999999;" d="M294.372,549.072c0,2.438-1.977,4.413-4.414,4.413c-2.438,0-4.414-1.975-4.414-4.413
			c0-2.437,1.976-4.414,4.414-4.414C292.395,544.659,294.372,546.635,294.372,549.072z"/>
		<path style="fill:#999999;" d="M293.372,585.072c0,2.438-1.977,4.413-4.414,4.413c-2.438,0-4.414-1.975-4.414-4.413
			c0-2.437,1.976-4.414,4.414-4.414C291.395,580.659,293.372,582.635,293.372,585.072z"/>
		<path style="fill:#999999;" d="M296.372,621.072c0,2.438-1.977,4.413-4.414,4.413c-2.438,0-4.414-1.975-4.414-4.413
			c0-2.437,1.976-4.414,4.414-4.414C294.395,616.659,296.372,618.635,296.372,621.072z"/>
	</g>
	<g id="logo">
		<g>
			<path style="fill:#A0A0A0;" d="M316.463,773.721c-0.266,0-0.47,0.094-0.613,0.277c-0.143,0.184-0.214,0.457-0.214,0.817v2.588
				c-0.33-0.36-0.667-0.626-1.016-0.798c-0.347-0.176-0.773-0.262-1.277-0.262c-0.875,0-1.579,0.305-2.114,0.918
				c-0.535,0.613-0.803,1.468-0.803,2.561c0,0.522,0.066,1,0.203,1.447c0.134,0.446,0.332,0.834,0.594,1.164
				c0.261,0.328,0.569,0.582,0.928,0.761c0.358,0.177,0.746,0.267,1.166,0.267c0.317,0,0.609-0.045,0.876-0.133
				c0.27-0.088,0.517-0.215,0.746-0.383c0.229-0.172,0.461-0.391,0.697-0.66v0.172c0,0.321,0.077,0.57,0.234,0.742
				c0.155,0.176,0.354,0.262,0.593,0.262c0.245,0,0.443-0.086,0.599-0.252c0.154-0.166,0.232-0.418,0.232-0.752v-7.732
				c0-0.33-0.071-0.58-0.216-0.748C316.935,773.807,316.728,773.721,316.463,773.721z M315.311,781.125
				c-0.153,0.332-0.356,0.578-0.611,0.74c-0.255,0.16-0.536,0.24-0.845,0.24c-0.305,0-0.585-0.084-0.841-0.256
				c-0.257-0.168-0.46-0.42-0.607-0.754c-0.148-0.334-0.222-0.738-0.222-1.213c0-0.451,0.069-0.847,0.209-1.185
				c0.139-0.34,0.337-0.602,0.588-0.783c0.253-0.182,0.539-0.273,0.86-0.273c0.308,0,0.592,0.089,0.851,0.266
				c0.26,0.178,0.465,0.435,0.618,0.771c0.15,0.338,0.227,0.736,0.227,1.205C315.538,780.379,315.462,780.795,315.311,781.125z"/>
			<path style="fill:#A0A0A0;" d="M325.014,780.132c0.251-0.133,0.379-0.419,0.379-0.858c0-0.477-0.123-0.945-0.366-1.402
				c-0.245-0.457-0.611-0.831-1.104-1.121c-0.488-0.289-1.076-0.434-1.762-0.434c-0.525,0-1.007,0.086-1.439,0.254
				c-0.433,0.17-0.796,0.414-1.092,0.729c-0.295,0.318-0.521,0.699-0.674,1.143c-0.154,0.441-0.231,0.924-0.231,1.441
				c0,1.102,0.313,1.972,0.938,2.613c0.625,0.643,1.499,0.965,2.627,0.965c0.492,0,0.928-0.065,1.307-0.193
				c0.378-0.129,0.694-0.291,0.943-0.486c0.251-0.193,0.438-0.398,0.563-0.607c0.124-0.215,0.187-0.398,0.187-0.557
				c0-0.18-0.056-0.32-0.167-0.42c-0.111-0.096-0.257-0.147-0.437-0.147c-0.167,0-0.296,0.039-0.386,0.117
				c-0.219,0.207-0.397,0.367-0.532,0.486c-0.139,0.121-0.287,0.232-0.45,0.338c-0.164,0.104-0.331,0.184-0.505,0.232
				c-0.173,0.049-0.364,0.072-0.574,0.072c-0.313,0-0.599-0.076-0.857-0.231c-0.26-0.154-0.468-0.384-0.624-0.687
				c-0.156-0.303-0.237-0.654-0.24-1.055h3.43C324.404,780.324,324.76,780.26,325.014,780.132z M320.518,779.33
				c0.059-0.592,0.23-1.037,0.51-1.338c0.28-0.303,0.641-0.455,1.075-0.455c0.459,0,0.828,0.149,1.108,0.447
				c0.281,0.297,0.442,0.748,0.485,1.346H320.518z"/>
			<path style="fill:#A0A0A0;" d="M331.466,779.656c-0.346-0.183-0.789-0.34-1.334-0.475c-0.458-0.109-0.817-0.205-1.078-0.281
				c-0.262-0.078-0.469-0.176-0.623-0.293c-0.154-0.117-0.232-0.27-0.232-0.453c0-0.201,0.106-0.369,0.315-0.502
				c0.21-0.137,0.473-0.205,0.79-0.205c0.309,0,0.552,0.052,0.732,0.154c0.181,0.103,0.336,0.24,0.469,0.412
				c0.162,0.205,0.307,0.357,0.434,0.463c0.127,0.102,0.279,0.154,0.46,0.154c0.247,0,0.439-0.065,0.574-0.193
				c0.136-0.129,0.202-0.295,0.202-0.496c0-0.184-0.064-0.369-0.19-0.563c-0.126-0.195-0.309-0.369-0.553-0.527
				c-0.241-0.157-0.543-0.285-0.905-0.381c-0.362-0.092-0.771-0.141-1.224-0.141c-0.577,0-1.071,0.092-1.48,0.279
				c-0.408,0.188-0.721,0.436-0.929,0.748c-0.209,0.313-0.314,0.646-0.314,0.996c0,0.395,0.113,0.727,0.341,0.996
				c0.227,0.27,0.529,0.486,0.908,0.652c0.379,0.164,0.869,0.32,1.474,0.472c0.535,0.128,0.919,0.263,1.153,0.405
				c0.232,0.141,0.351,0.365,0.351,0.674c0,0.2-0.113,0.379-0.338,0.535c-0.225,0.156-0.513,0.234-0.863,0.234
				c-0.433,0-0.775-0.076-1.025-0.231c-0.25-0.153-0.465-0.389-0.646-0.701c-0.089-0.161-0.184-0.287-0.282-0.379
				c-0.1-0.088-0.239-0.133-0.425-0.133c-0.21,0-0.382,0.068-0.52,0.205c-0.137,0.137-0.205,0.301-0.205,0.494
				c0,0.291,0.108,0.584,0.321,0.869c0.214,0.289,0.545,0.531,0.995,0.725c0.449,0.191,0.989,0.289,1.62,0.289
				c0.658,0,1.22-0.09,1.68-0.267c0.459-0.179,0.808-0.438,1.043-0.786c0.235-0.343,0.352-0.758,0.352-1.24
				c0-0.322-0.089-0.607-0.266-0.859C332.07,780.059,331.81,779.842,331.466,779.656z"/>
			<path style="fill:#A0A0A0;" d="M334.866,776.33c-0.256,0-0.467,0.088-0.626,0.264c-0.161,0.174-0.24,0.435-0.24,0.785v5.016
				c0,0.342,0.079,0.604,0.24,0.789c0.159,0.184,0.37,0.277,0.626,0.277c0.257,0,0.469-0.09,0.636-0.271
				c0.167-0.181,0.25-0.444,0.25-0.796v-5.07c0-0.311-0.083-0.557-0.25-0.73C335.335,776.418,335.123,776.33,334.866,776.33z"/>
			<path style="fill:#A0A0A0;" d="M334.886,773.801c-0.236,0-0.443,0.078-0.619,0.239c-0.18,0.161-0.267,0.366-0.267,0.614
				c0,0.273,0.086,0.486,0.261,0.635c0.171,0.15,0.38,0.225,0.625,0.225c0.235,0,0.438-0.075,0.611-0.227
				c0.17-0.152,0.255-0.365,0.255-0.633c0-0.279-0.088-0.492-0.262-0.637C335.314,773.873,335.111,773.801,334.886,773.801z"/>
			<path style="fill:#A0A0A0;" d="M343.171,776.33c-0.235,0-0.428,0.082-0.577,0.252c-0.149,0.168-0.224,0.402-0.224,0.707v0.234
				c-0.314-0.406-0.652-0.704-1.017-0.895c-0.363-0.19-0.794-0.285-1.29-0.285c-0.416,0-0.798,0.074-1.145,0.222
				c-0.347,0.146-0.652,0.364-0.918,0.657c-0.267,0.291-0.47,0.648-0.613,1.074c-0.144,0.424-0.216,0.898-0.216,1.424
				c0,0.707,0.118,1.33,0.354,1.871c0.234,0.539,0.571,0.959,1.012,1.258c0.439,0.301,0.951,0.449,1.537,0.449
				c0.489,0,0.908-0.1,1.262-0.295c0.353-0.197,0.666-0.484,0.936-0.861c-0.01,0.576-0.023,0.992-0.039,1.25
				c-0.019,0.26-0.077,0.502-0.176,0.729c-0.103,0.228-0.278,0.404-0.528,0.531c-0.25,0.127-0.604,0.188-1.057,0.188
				c-0.223,0-0.42-0.021-0.591-0.062c-0.171-0.041-0.319-0.102-0.439-0.184c-0.123-0.086-0.234-0.188-0.335-0.305
				c-0.101-0.117-0.197-0.234-0.292-0.35c-0.192-0.227-0.417-0.34-0.674-0.34c-0.207,0-0.382,0.068-0.527,0.203
				c-0.147,0.134-0.218,0.309-0.218,0.523c0,0.283,0.129,0.557,0.385,0.826c0.257,0.266,0.623,0.482,1.099,0.654
				c0.476,0.168,1.016,0.253,1.62,0.253c0.658,0,1.209-0.067,1.652-0.2c0.443-0.131,0.803-0.336,1.076-0.608
				c0.273-0.274,0.474-0.621,0.597-1.042c0.125-0.42,0.188-0.92,0.188-1.504v-5.092c0-0.418-0.058-0.732-0.167-0.953
				C343.733,776.441,343.509,776.33,343.171,776.33z M342.06,781.055c-0.162,0.315-0.374,0.551-0.634,0.707
				c-0.258,0.154-0.533,0.234-0.824,0.234c-0.493,0-0.895-0.183-1.205-0.547c-0.311-0.361-0.467-0.9-0.467-1.611
				c0-0.703,0.151-1.244,0.454-1.625c0.302-0.383,0.704-0.572,1.204-0.572c0.515,0,0.93,0.199,1.244,0.598
				c0.314,0.398,0.471,0.955,0.471,1.668C342.304,780.357,342.224,780.74,342.06,781.055z"/>
			<path style="fill:#A0A0A0;" d="M351.708,777.486c-0.18-0.369-0.452-0.654-0.815-0.854c-0.366-0.202-0.778-0.302-1.241-0.302
				c-0.476,0-0.896,0.096-1.261,0.287c-0.368,0.19-0.704,0.488-1.012,0.895v-0.213c0-0.209-0.038-0.387-0.114-0.531
				c-0.073-0.146-0.175-0.256-0.299-0.326c-0.123-0.076-0.263-0.111-0.416-0.111c-0.254,0-0.453,0.082-0.599,0.248
				c-0.145,0.164-0.217,0.412-0.217,0.746v5.07c0,0.342,0.08,0.604,0.242,0.789c0.164,0.184,0.372,0.277,0.624,0.277
				c0.261,0,0.474-0.09,0.64-0.267c0.164-0.179,0.247-0.444,0.247-0.8v-2.197c0-0.713,0.043-1.203,0.127-1.465
				c0.12-0.326,0.31-0.584,0.565-0.768c0.258-0.186,0.543-0.278,0.855-0.278c0.48,0,0.8,0.153,0.96,0.456
				c0.161,0.309,0.24,0.752,0.24,1.327v2.925c0,0.342,0.083,0.604,0.245,0.789c0.162,0.184,0.375,0.277,0.636,0.277
				c0.257,0,0.466-0.09,0.627-0.271c0.159-0.181,0.239-0.444,0.239-0.796v-3.264c0-0.385-0.016-0.703-0.051-0.951
				C351.899,777.932,351.823,777.699,351.708,777.486z"/>
			<path style="fill:#A0A0A0;" d="M359.693,780.132c0.251-0.133,0.378-0.419,0.378-0.858c0-0.477-0.121-0.945-0.366-1.402
				c-0.245-0.457-0.611-0.831-1.103-1.121c-0.49-0.289-1.077-0.434-1.762-0.434c-0.528,0-1.007,0.086-1.439,0.254
				c-0.433,0.17-0.796,0.414-1.092,0.729c-0.296,0.318-0.522,0.699-0.676,1.143c-0.152,0.441-0.231,0.924-0.231,1.441
				c0,1.102,0.313,1.972,0.938,2.613c0.627,0.643,1.501,0.965,2.628,0.965c0.491,0,0.929-0.065,1.307-0.193
				c0.38-0.129,0.694-0.291,0.944-0.486c0.251-0.193,0.439-0.398,0.564-0.607c0.124-0.215,0.185-0.398,0.185-0.557
				c0-0.18-0.057-0.32-0.169-0.42c-0.111-0.096-0.254-0.147-0.436-0.147c-0.166,0-0.296,0.039-0.386,0.117
				c-0.218,0.207-0.395,0.367-0.533,0.486c-0.136,0.121-0.286,0.232-0.448,0.338c-0.164,0.104-0.332,0.184-0.504,0.232
				c-0.175,0.049-0.366,0.072-0.576,0.072c-0.313,0-0.598-0.076-0.857-0.231c-0.259-0.154-0.467-0.384-0.622-0.687
				c-0.157-0.303-0.237-0.654-0.241-1.055h3.429C359.085,780.324,359.439,780.26,359.693,780.132z M355.196,779.33
				c0.059-0.592,0.23-1.037,0.51-1.338c0.279-0.303,0.64-0.455,1.076-0.455c0.458,0,0.828,0.149,1.107,0.447
				c0.281,0.297,0.443,0.748,0.487,1.346H355.196z"/>
			<path style="fill:#A0A0A0;" d="M367.183,773.721c-0.268,0-0.471,0.094-0.614,0.277c-0.144,0.184-0.216,0.457-0.216,0.817v2.588
				c-0.329-0.36-0.667-0.626-1.015-0.798c-0.347-0.176-0.771-0.262-1.276-0.262c-0.875,0-1.58,0.305-2.115,0.918
				c-0.534,0.613-0.803,1.468-0.803,2.561c0,0.522,0.068,1,0.202,1.447c0.135,0.446,0.334,0.834,0.594,1.164
				c0.262,0.328,0.571,0.582,0.929,0.761c0.358,0.177,0.746,0.267,1.165,0.267c0.318,0,0.608-0.045,0.878-0.133
				c0.267-0.088,0.516-0.215,0.744-0.383c0.23-0.172,0.462-0.391,0.697-0.66v0.172c0,0.321,0.078,0.57,0.234,0.742
				c0.157,0.176,0.354,0.262,0.596,0.262c0.242,0,0.441-0.086,0.596-0.252c0.155-0.166,0.232-0.418,0.232-0.752v-7.732
				c0-0.33-0.071-0.58-0.215-0.748C367.65,773.807,367.447,773.721,367.183,773.721z M366.028,781.125
				c-0.151,0.332-0.356,0.578-0.608,0.74c-0.256,0.16-0.537,0.24-0.847,0.24c-0.304,0-0.584-0.084-0.841-0.256
				c-0.257-0.168-0.46-0.42-0.607-0.754c-0.147-0.334-0.221-0.738-0.221-1.213c0-0.451,0.069-0.847,0.208-1.185
				c0.139-0.34,0.335-0.602,0.587-0.783c0.254-0.182,0.541-0.273,0.861-0.273c0.309,0,0.593,0.089,0.852,0.266
				c0.26,0.178,0.465,0.435,0.616,0.771c0.152,0.338,0.23,0.736,0.23,1.205C366.259,780.379,366.181,780.795,366.028,781.125z"/>
			<path style="fill:#A0A0A0;" d="M378.49,776.758c-0.44-0.276-0.951-0.414-1.532-0.414c-0.506,0-0.93,0.09-1.273,0.273
				c-0.343,0.18-0.679,0.441-1.008,0.786v-2.679c0-0.32-0.072-0.568-0.219-0.742c-0.147-0.174-0.354-0.262-0.623-0.262
				c-0.257,0-0.456,0.093-0.6,0.275c-0.145,0.182-0.216,0.451-0.216,0.807v7.654c0,0.332,0.074,0.579,0.221,0.75
				c0.148,0.168,0.348,0.254,0.595,0.254c0.245,0,0.446-0.086,0.604-0.254c0.159-0.171,0.237-0.418,0.237-0.75v-0.172
				c0.193,0.223,0.347,0.389,0.465,0.502c0.118,0.11,0.261,0.217,0.428,0.322c0.167,0.106,0.369,0.189,0.607,0.254
				c0.237,0.065,0.492,0.098,0.761,0.098c0.44,0,0.845-0.09,1.211-0.267c0.366-0.179,0.678-0.431,0.935-0.755
				c0.257-0.324,0.453-0.71,0.588-1.152c0.136-0.443,0.202-0.93,0.202-1.465c0-0.717-0.12-1.34-0.363-1.865
				C379.268,777.434,378.929,777.031,378.49,776.758z M377.636,781.529c-0.319,0.385-0.7,0.576-1.141,0.576
				c-0.518,0-0.936-0.19-1.256-0.563c-0.318-0.375-0.478-0.911-0.478-1.609c0-0.475,0.074-0.885,0.226-1.229
				c0.148-0.346,0.355-0.609,0.616-0.791c0.262-0.182,0.559-0.273,0.893-0.273c0.326,0,0.61,0.092,0.854,0.273
				c0.244,0.182,0.434,0.439,0.566,0.775c0.133,0.334,0.199,0.73,0.199,1.193C378.114,780.598,377.955,781.148,377.636,781.529z"/>
			<path style="fill:#A0A0A0;" d="M386.583,776.438c-0.122-0.072-0.25-0.107-0.382-0.107c-0.185,0-0.327,0.033-0.428,0.098
				c-0.101,0.063-0.196,0.188-0.286,0.371c-0.089,0.186-0.19,0.438-0.302,0.766l-1.406,4.014l-1.483-4.316
				c-0.1-0.301-0.213-0.529-0.34-0.691c-0.129-0.159-0.32-0.24-0.572-0.24c-0.145,0-0.287,0.039-0.422,0.115
				c-0.135,0.078-0.24,0.18-0.316,0.308c-0.078,0.13-0.117,0.27-0.117,0.419c0,0.143,0.066,0.367,0.199,0.682l2.158,5.434
				l-0.159,0.391c-0.121,0.287-0.228,0.504-0.319,0.65c-0.091,0.15-0.195,0.254-0.311,0.314c-0.115,0.059-0.272,0.09-0.475,0.09
				c-0.082,0-0.178-0.012-0.289-0.039c-0.091-0.025-0.183-0.039-0.276-0.039c-0.24,0-0.42,0.055-0.543,0.165
				c-0.122,0.108-0.183,0.263-0.183,0.464c0,0.297,0.129,0.5,0.386,0.611c0.257,0.113,0.643,0.167,1.156,0.167
				c0.525,0,0.944-0.08,1.255-0.241c0.312-0.16,0.56-0.391,0.748-0.691c0.189-0.299,0.381-0.711,0.579-1.238l2.286-5.986
				c0.056-0.154,0.103-0.305,0.142-0.457c0.037-0.15,0.065-0.266,0.083-0.346c0-0.135-0.033-0.258-0.101-0.381
				C386.799,776.602,386.705,776.508,386.583,776.438z"/>
		</g>
		<g>
			<path style="fill:#A0A0A0;" d="M417.873,773.721c-0.578,0-1.033,0.074-1.365,0.225c-0.332,0.146-0.568,0.381-0.707,0.705
				c-0.139,0.323-0.207,0.76-0.207,1.307v0.527h-0.418c-0.586,0-0.881,0.21-0.881,0.629c0,0.19,0.07,0.344,0.213,0.459
				c0.141,0.119,0.342,0.178,0.603,0.178h0.482v4.645c0,0.346,0.08,0.609,0.248,0.795c0.164,0.18,0.371,0.271,0.617,0.271
				c0.262,0,0.475-0.092,0.639-0.271c0.164-0.186,0.25-0.449,0.25-0.795v-4.645h0.43c0.313,0,0.557-0.039,0.734-0.115
				c0.178-0.076,0.268-0.26,0.268-0.547c0-0.401-0.334-0.603-1.002-0.603h-0.43v-0.418c0-0.346,0.045-0.611,0.133-0.799
				c0.09-0.188,0.295-0.279,0.611-0.279c0.117,0,0.256,0.012,0.424,0.037c0.166,0.025,0.283,0.04,0.352,0.04
				c0.148,0,0.275-0.058,0.381-0.173c0.108-0.115,0.16-0.254,0.16-0.419C419.408,773.973,418.897,773.721,417.873,773.721z"/>
			<path style="fill:#A0A0A0;" d="M423.982,776.607c-0.348-0.186-0.705-0.277-1.072-0.277c-0.369,0-0.662,0.092-0.883,0.277
				c-0.221,0.182-0.436,0.455-0.646,0.814c-0.016-0.359-0.084-0.633-0.211-0.814c-0.129-0.186-0.338-0.277-0.631-0.277
				c-0.568,0-0.854,0.395-0.854,1.182v4.883c0,0.352,0.08,0.615,0.244,0.796c0.162,0.181,0.369,0.271,0.621,0.271
				c0.258,0,0.469-0.09,0.637-0.267c0.168-0.179,0.252-0.444,0.252-0.8v-1.467c0-0.523,0.014-0.973,0.051-1.336
				c0.033-0.367,0.096-0.685,0.186-0.947c0.09-0.266,0.217-0.467,0.379-0.602c0.162-0.137,0.371-0.203,0.629-0.203
				c0.189,0,0.406,0.039,0.652,0.117c0.246,0.08,0.402,0.119,0.467,0.119c0.172,0,0.328-0.068,0.477-0.207
				c0.148-0.14,0.223-0.316,0.223-0.529C424.502,777.035,424.328,776.789,423.982,776.607z"/>
			<path style="fill:#A0A0A0;" d="M431.094,780.132c0.252-0.133,0.377-0.419,0.377-0.858c0-0.477-0.123-0.945-0.365-1.402
				c-0.244-0.457-0.611-0.831-1.104-1.121c-0.49-0.289-1.078-0.434-1.762-0.434c-0.527,0-1.004,0.086-1.439,0.254
				c-0.432,0.17-0.795,0.414-1.092,0.729c-0.295,0.318-0.52,0.699-0.676,1.143c-0.152,0.441-0.23,0.924-0.23,1.441
				c0,1.102,0.314,1.972,0.939,2.613c0.623,0.643,1.5,0.965,2.625,0.965c0.492,0,0.93-0.065,1.309-0.193
				c0.379-0.129,0.695-0.291,0.945-0.486c0.248-0.193,0.436-0.398,0.561-0.607c0.125-0.215,0.186-0.398,0.186-0.557
				c0-0.18-0.055-0.32-0.166-0.42c-0.111-0.096-0.258-0.147-0.436-0.147c-0.166,0-0.297,0.039-0.387,0.117
				c-0.217,0.207-0.395,0.367-0.533,0.486c-0.135,0.121-0.285,0.232-0.449,0.338c-0.164,0.104-0.33,0.184-0.504,0.232
				c-0.172,0.049-0.367,0.072-0.574,0.072c-0.313,0-0.598-0.076-0.859-0.231c-0.26-0.154-0.467-0.384-0.623-0.687
				c-0.154-0.303-0.236-0.654-0.24-1.055h3.43C430.484,780.324,430.838,780.26,431.094,780.132z M426.596,779.33
				c0.06-0.592,0.23-1.037,0.512-1.338c0.279-0.303,0.639-0.455,1.074-0.455c0.459,0,0.828,0.149,1.107,0.447
				c0.283,0.297,0.441,0.748,0.484,1.346H426.596z"/>
			<path style="fill:#A0A0A0;" d="M438.908,780.132c0.254-0.133,0.379-0.419,0.379-0.858c0-0.477-0.121-0.945-0.365-1.402
				c-0.244-0.457-0.611-0.831-1.1-1.121c-0.492-0.289-1.08-0.434-1.766-0.434c-0.525,0-1.006,0.086-1.438,0.254
				c-0.434,0.17-0.797,0.414-1.094,0.729c-0.295,0.318-0.52,0.699-0.676,1.143c-0.152,0.441-0.227,0.924-0.227,1.441
				c0,1.102,0.311,1.972,0.934,2.613c0.627,0.643,1.504,0.965,2.629,0.965c0.492,0,0.928-0.065,1.307-0.193
				c0.379-0.129,0.695-0.291,0.945-0.486c0.25-0.193,0.438-0.398,0.563-0.607c0.123-0.215,0.185-0.398,0.185-0.557
				c0-0.18-0.057-0.32-0.168-0.42c-0.111-0.096-0.256-0.147-0.436-0.147c-0.17,0-0.295,0.039-0.385,0.117
				c-0.219,0.207-0.396,0.367-0.535,0.486c-0.135,0.121-0.285,0.232-0.449,0.338c-0.164,0.104-0.33,0.184-0.504,0.232
				c-0.174,0.049-0.367,0.072-0.574,0.072c-0.313,0-0.598-0.076-0.857-0.231c-0.26-0.154-0.469-0.384-0.623-0.687
				c-0.156-0.303-0.238-0.654-0.24-1.055h3.43C438.303,780.324,438.658,780.26,438.908,780.132z M434.414,779.33
				c0.059-0.592,0.23-1.037,0.508-1.338c0.283-0.303,0.641-0.455,1.078-0.455c0.457,0,0.826,0.149,1.107,0.447
				c0.279,0.297,0.441,0.748,0.486,1.346H434.414z"/>
			<path style="fill:#A0A0A0;" d="M445.935,776.76c-0.453-0.277-0.949-0.416-1.49-0.416c-0.447,0-0.852,0.095-1.209,0.285
				c-0.352,0.19-0.693,0.488-1.025,0.895v-0.209c0-0.318-0.078-0.562-0.234-0.731c-0.156-0.172-0.359-0.254-0.607-0.254
				c-0.252,0-0.451,0.082-0.598,0.248c-0.143,0.164-0.217,0.412-0.217,0.746v7.568c0,0.381,0.053,0.672,0.16,0.869
				c0.107,0.201,0.324,0.3,0.654,0.3c0.561,0,0.842-0.386,0.842-1.155v-2.633c0.307,0.389,0.633,0.684,0.973,0.883
				c0.342,0.203,0.762,0.305,1.262,0.305c0.416,0,0.807-0.082,1.166-0.248c0.363-0.164,0.676-0.4,0.941-0.707
				c0.266-0.305,0.475-0.686,0.625-1.137c0.152-0.453,0.228-0.947,0.228-1.486c0-0.734-0.131-1.367-0.392-1.901
				C446.748,777.445,446.391,777.04,445.935,776.76z M445.422,781.09c-0.152,0.338-0.348,0.592-0.598,0.76
				c-0.246,0.172-0.518,0.256-0.809,0.256c-0.488,0-0.896-0.194-1.227-0.582c-0.33-0.389-0.494-0.93-0.494-1.627
				c0-0.742,0.166-1.303,0.498-1.684c0.332-0.383,0.74-0.572,1.223-0.572c0.305,0,0.58,0.089,0.832,0.266
				c0.25,0.178,0.447,0.434,0.586,0.766c0.143,0.332,0.213,0.728,0.213,1.191C445.647,780.345,445.572,780.753,445.422,781.09z"/>
			<path style="fill:#A0A0A0;" d="M449.68,776.33c-0.256,0-0.463,0.088-0.625,0.264c-0.162,0.174-0.24,0.435-0.24,0.785v5.016
				c0,0.342,0.078,0.604,0.24,0.789c0.162,0.184,0.369,0.277,0.625,0.277c0.258,0,0.469-0.09,0.637-0.271
				c0.168-0.181,0.25-0.444,0.25-0.796v-5.07c0-0.311-0.082-0.557-0.25-0.73C450.148,776.418,449.938,776.33,449.68,776.33z"/>
			<path style="fill:#A0A0A0;" d="M449.701,773.801c-0.236,0-0.445,0.078-0.621,0.239c-0.178,0.161-0.266,0.366-0.266,0.614
				c0,0.273,0.088,0.486,0.26,0.635c0.172,0.15,0.381,0.225,0.627,0.225c0.236,0,0.438-0.075,0.611-0.227
				c0.168-0.152,0.254-0.365,0.254-0.633c0-0.279-0.086-0.492-0.264-0.637C450.127,773.873,449.928,773.801,449.701,773.801z"/>
			<path style="fill:#A0A0A0;" d="M458.166,781.771l-1.797-2.826l0.93-0.854c0.475-0.43,0.715-0.771,0.715-1.029
				c0-0.209-0.074-0.385-0.221-0.523c-0.146-0.139-0.326-0.209-0.545-0.209c-0.185,0-0.342,0.049-0.471,0.141
				c-0.127,0.096-0.313,0.27-0.559,0.528l-1.971,2.067v-4.251c0-0.36-0.08-0.634-0.236-0.817c-0.158-0.184-0.373-0.277-0.643-0.277
				c-0.279,0-0.494,0.104-0.645,0.307c-0.15,0.204-0.223,0.502-0.223,0.889v7.479c0,0.352,0.076,0.615,0.23,0.796
				c0.154,0.181,0.365,0.271,0.637,0.271c0.23,0,0.434-0.092,0.613-0.271c0.178-0.186,0.266-0.443,0.266-0.783v-1.395l0.951-0.898
				l1.547,2.543c0.197,0.305,0.354,0.516,0.469,0.631c0.115,0.117,0.281,0.174,0.496,0.174c0.246,0,0.447-0.08,0.6-0.24
				c0.15-0.162,0.229-0.379,0.229-0.659c0-0.099-0.029-0.204-0.088-0.313C458.395,782.141,458.299,781.981,458.166,781.771z"/>
			<path style="fill:#A0A0A0;" d="M461.064,781.527c-0.27,0-0.498,0.094-0.684,0.281c-0.182,0.19-0.275,0.412-0.275,0.674
				c0,0.309,0.098,0.549,0.291,0.721c0.191,0.172,0.42,0.258,0.685,0.258c0.258,0,0.478-0.086,0.672-0.262
				c0.189-0.172,0.285-0.41,0.285-0.717c0-0.266-0.096-0.49-0.285-0.676C461.56,781.619,461.332,781.527,461.064,781.527z"/>
			<path style="fill:#A0A0A0;" d="M469.58,780.525c-0.18,0-0.33,0.055-0.455,0.168c-0.125,0.107-0.238,0.264-0.348,0.461
				c-0.193,0.334-0.414,0.582-0.664,0.744c-0.252,0.164-0.553,0.244-0.902,0.244c-0.262,0-0.504-0.051-0.721-0.15
				c-0.219-0.1-0.406-0.248-0.559-0.443c-0.152-0.194-0.272-0.43-0.355-0.705c-0.08-0.277-0.119-0.58-0.119-0.91
				c0-0.701,0.16-1.256,0.475-1.66c0.316-0.404,0.734-0.607,1.252-0.607c0.359,0,0.656,0.082,0.891,0.244
				c0.234,0.162,0.459,0.409,0.672,0.734c0.119,0.168,0.229,0.287,0.322,0.359c0.096,0.076,0.219,0.113,0.365,0.113
				c0.223,0,0.412-0.07,0.566-0.217c0.156-0.144,0.234-0.324,0.234-0.533c0-0.205-0.068-0.426-0.207-0.666
				c-0.139-0.236-0.342-0.461-0.604-0.672c-0.264-0.21-0.586-0.381-0.965-0.514c-0.379-0.131-0.795-0.199-1.248-0.199
				c-0.732,0-1.363,0.152-1.887,0.455c-0.529,0.299-0.934,0.728-1.211,1.279c-0.279,0.555-0.416,1.19-0.416,1.908
				c0,1.063,0.305,1.91,0.912,2.54c0.607,0.633,1.455,0.948,2.535,0.948c0.512,0,0.969-0.068,1.377-0.205
				c0.404-0.137,0.744-0.318,1.012-0.545c0.266-0.224,0.465-0.459,0.596-0.709c0.131-0.248,0.197-0.48,0.197-0.699
				c0-0.184-0.072-0.357-0.215-0.522C469.975,780.607,469.795,780.525,469.58,780.525z"/>
			<path style="fill:#A0A0A0;" d="M477.473,777.32c-0.307-0.316-0.678-0.563-1.109-0.732c-0.434-0.172-0.914-0.258-1.447-0.258
				c-0.521,0-0.996,0.082-1.432,0.254c-0.432,0.169-0.801,0.41-1.104,0.723c-0.305,0.313-0.539,0.688-0.699,1.131
				c-0.164,0.441-0.244,0.928-0.244,1.459c0,0.525,0.08,1.007,0.24,1.441c0.16,0.436,0.396,0.811,0.707,1.131
				c0.309,0.32,0.678,0.563,1.1,0.734c0.426,0.172,0.902,0.258,1.432,0.258c0.537,0,1.018-0.086,1.447-0.254
				c0.43-0.171,0.797-0.414,1.103-0.73c0.309-0.315,0.547-0.695,0.707-1.137c0.164-0.441,0.244-0.924,0.244-1.443
				c0-0.527-0.08-1.011-0.24-1.445C478.016,778.014,477.783,777.637,477.473,777.32z M476.185,781.555
				c-0.314,0.4-0.736,0.602-1.27,0.602c-0.35,0-0.654-0.091-0.914-0.273c-0.26-0.182-0.457-0.443-0.598-0.787
				c-0.139-0.342-0.209-0.741-0.209-1.199c0-0.465,0.07-0.869,0.213-1.217c0.141-0.346,0.344-0.607,0.603-0.785
				c0.262-0.178,0.565-0.267,0.904-0.267c0.533,0,0.955,0.2,1.27,0.599c0.315,0.397,0.473,0.955,0.473,1.67
				C476.658,780.602,476.5,781.156,476.185,781.555z"/>
			<path style="fill:#A0A0A0;" d="M488.734,776.625c-0.348-0.187-0.76-0.281-1.24-0.281c-0.41,0-0.787,0.086-1.125,0.262
				c-0.338,0.172-0.654,0.438-0.949,0.798c-0.205-0.356-0.467-0.622-0.785-0.796c-0.314-0.178-0.693-0.264-1.137-0.264
				c-0.422,0-0.807,0.086-1.154,0.256c-0.35,0.172-0.672,0.44-0.975,0.804v-0.167c0-0.283-0.082-0.504-0.244-0.666
				c-0.16-0.159-0.359-0.24-0.602-0.24c-0.246,0-0.447,0.086-0.6,0.258c-0.152,0.17-0.227,0.422-0.227,0.752v5.016
				c0,0.365,0.084,0.641,0.252,0.824c0.172,0.188,0.389,0.281,0.652,0.281c0.27,0,0.486-0.094,0.652-0.281
				c0.164-0.184,0.248-0.459,0.248-0.824v-2.371c0-0.735,0.09-1.301,0.273-1.695c0.182-0.393,0.559-0.592,1.133-0.592
				c0.287,0,0.498,0.08,0.629,0.236c0.133,0.156,0.215,0.356,0.244,0.6c0.031,0.246,0.045,0.586,0.045,1.027v2.795
				c0,0.369,0.084,0.644,0.248,0.828c0.164,0.184,0.381,0.277,0.647,0.277c0.273,0,0.494-0.094,0.662-0.277
				c0.166-0.185,0.248-0.459,0.248-0.828v-2.332c0-0.75,0.066-1.271,0.191-1.568c0.119-0.228,0.281-0.414,0.486-0.551
				c0.209-0.137,0.43-0.207,0.66-0.207c0.285,0,0.502,0.078,0.641,0.232c0.141,0.154,0.227,0.344,0.262,0.57
				c0.031,0.229,0.047,0.529,0.047,0.906v2.949c0,0.365,0.084,0.641,0.254,0.824c0.17,0.188,0.389,0.281,0.652,0.281
				c0.275,0,0.494-0.094,0.662-0.277c0.166-0.185,0.25-0.459,0.25-0.828v-3.424c0-0.682-0.074-1.179-0.227-1.496
				C489.338,777.084,489.08,776.815,488.734,776.625z"/>
		</g>
		<g>
			<path style="fill:#A0A0A0;" d="M401.246,771.474c0.59-0.054,0.986-0.759,0.697-1.283c-0.262-0.591-1.169-0.665-1.521-0.124
				c-0.375,0.481-0.082,1.234,0.492,1.389c0.035,0.121,0.07,0.242,0.103,0.364c-0.88,0.056-1.781,0.253-2.521,0.757
				c0.076,0.215,0.151,0.432,0.227,0.644c1.494-0.654,3.171-0.512,4.747-0.355c0.053-0.209,0.105-0.416,0.156-0.623
				c-0.711-0.32-1.494-0.438-2.267-0.434C401.32,771.697,401.283,771.586,401.246,771.474z"/>
			<path style="fill:#A0A0A0;" d="M410.246,774.221c-0.236,0.123-0.281,0.403-0.268,0.645c-0.264,0.256-0.139,0.639-0.168,0.963
				c-0.059,0.18-0.273,0.199-0.422,0.268c-0.209-0.314-0.428-0.617-0.703-0.875v-0.016c-0.301-0.283-0.627-0.535-0.971-0.76
				c-0.277,0.295-0.566,0.584-0.834,0.893c0.527,0.58,1.014,1.198,1.443,1.854c0.297,0.499,0.537,1.029,0.742,1.569
				c0.445-0.226,0.885-0.464,1.326-0.698c-0.233-0.543-0.502-1.072-0.785-1.59c0.195-0.107,0.461-0.211,0.49-0.465
				c0.023-0.283-0.041-0.592,0.131-0.842c0.342,0.225,0.865-0.029,0.869-0.445C411.143,774.289,410.602,773.977,410.246,774.221z"/>
			<path style="fill:#A0A0A0;" d="M405.787,774.791c-0.986-0.867-2.264-1.45-3.59-1.443c-1.675-0.023-3.371,0.252-4.913,0.924
				c-1.455,0.639-2.719,1.775-3.359,3.248c-0.617,1.324-0.61,2.848-0.331,4.256c1.542,0.387,3.108,0.729,4.699,0.803
				c1.569,0.049,3.146,0.086,4.705-0.133c2.141-0.281,4.238-0.961,6.105-2.053c0,0-0.256-1.41-1.262-2.947
				C407.264,776.486,406.637,775.531,405.787,774.791z M400.266,779.341c-0.29,0.423-0.707,0.751-1.185,0.935
				c-0.901,0.336-1.998,0.107-2.646-0.613c-0.454-0.496-0.722-1.166-0.674-1.844c0.035-0.845,0.558-1.632,1.299-2.027
				c0.566-0.309,1.248-0.361,1.862-0.189c0.26,0.064,0.499,0.185,0.72,0.336c0.454,0.322,0.797,0.799,0.95,1.338
				C400.805,777.966,400.67,778.742,400.266,779.341z M406.76,777.818c-0.105,0.721-0.797,1.336-1.535,1.287
				c-0.426,0.035-0.838-0.166-1.129-0.469c-0.207-0.258-0.379-0.559-0.408-0.895c-0.098-0.734,0.416-1.49,1.135-1.668
				c0.316-0.088,0.646-0.039,0.959,0.033C406.457,776.349,406.9,777.111,406.76,777.818z"/>
			<path style="fill:#A0A0A0;" d="M392.374,776.799c-0.127-0.232-0.165-0.51-0.327-0.719c-0.094-0.125-0.26-0.072-0.391-0.076
				c-0.165,0.02-0.329-0.025-0.484-0.074c0.183-0.26,0.135-0.654-0.147-0.822c-0.298-0.215-0.764-0.027-0.842,0.33
				c-0.126,0.391,0.29,0.783,0.673,0.68c0.204,0.299,0.571,0.252,0.884,0.264c0.142,0.244,0.249,0.512,0.43,0.732
				c-0.336,0.665-0.524,1.404-0.54,2.148c0.431,0.181,0.86,0.363,1.294,0.544c0.023-0.469,0.076-0.934,0.147-1.396
				c0.146-1.005,0.727-1.879,1.416-2.6c-0.17-0.181-0.361-0.339-0.541-0.51C393.317,775.678,392.803,776.211,392.374,776.799z"/>
			<path style="fill:#A0A0A0;" d="M399.17,783.264c-1.099-0.057-2.196-0.158-3.268-0.397c-0.761-0.154-1.506-0.375-2.254-0.588
				c0.12,0.957,0.507,1.871,1.058,2.658c0.651,0.914,1.521,1.756,2.605,2.094c0.843,0.226,1.855,0.518,3.59,0.488
				c1.435-0.027,2.845-0.209,4.109-0.744c0.811-0.35,1.572-0.826,2.227-1.421c0.566-0.535,1.008-1.198,1.315-1.913
				c0.297-0.674,0.563-1.887,0.533-2.508c-1.553,0.886-3.293,1.654-5.063,1.953C402.432,783.232,400.793,783.334,399.17,783.264z"/>
		</g>
	</g>
</g>
</svg>
